<svg xmlns="http://www.w3.org/2000/svg" xmlns:xlink="http://www.w3.org/1999/xlink" width="190" zoomAndPan="magnify" viewBox="0 0 142.5 48" height="64" preserveAspectRatio="xMidYMid meet" version="1.2"><defs><clipPath id="f30d3a4dfc"><path d="M 1.210938 0 L 140.800781 0 L 140.800781 47.019531 L 1.210938 47.019531 Z M 1.210938 0 "/></clipPath><clipPath id="85d9e3323b"><path d="M 1.210938 0.253906 L 47.496094 0.253906 L 47.496094 46.539062 L 1.210938 46.539062 Z M 1.210938 0.253906 "/></clipPath><clipPath id="904988b645"><path d="M 47.679688 0 L 94.222656 0 L 94.222656 46.539062 L 47.679688 46.539062 Z M 47.679688 0 "/></clipPath><clipPath id="63fdcf2777"><path d="M 70.953125 0 C 58.097656 0 47.679688 10.417969 47.679688 23.269531 C 47.679688 36.121094 58.097656 46.539062 70.953125 46.539062 C 83.804688 46.539062 94.222656 36.121094 94.222656 23.269531 C 94.222656 10.417969 83.804688 0 70.953125 0 Z M 70.953125 0 "/></clipPath><clipPath id="35b45d202d"><path d="M 94.40625 0.0703125 L 140.691406 0.0703125 L 140.691406 46.355469 L 94.40625 46.355469 Z M 94.40625 0.0703125 "/></clipPath></defs><g id="8127902166"><g clip-rule="nonzero" clip-path="url(#f30d3a4dfc)"><path style=" stroke:none;fill-rule:nonzero;fill:#ffffff;fill-opacity:1;" d="M 1.210938 0 L 140.800781 0 L 140.800781 47.019531 L 1.210938 47.019531 Z M 1.210938 0 "/></g><g clip-rule="nonzero" clip-path="url(#85d9e3323b)"><path style=" stroke:none;fill-rule:nonzero;fill:#ffffff;fill-opacity:1;" d="M 47.488281 0.257812 L 47.488281 46.539062 C 21.929688 46.539062 1.210938 25.820312 1.210938 0.257812 Z M 47.488281 0.257812 "/></g><g clip-rule="nonzero" clip-path="url(#904988b645)"><g clip-rule="nonzero" clip-path="url(#63fdcf2777)"><path style=" stroke:none;fill-rule:nonzero;fill:#e76818;fill-opacity:1;" d="M 47.679688 0 L 94.222656 0 L 94.222656 46.539062 L 47.679688 46.539062 Z M 47.679688 0 "/></g></g><g clip-rule="nonzero" clip-path="url(#35b45d202d)"><path style=" stroke:none;fill-rule:nonzero;fill:#ea5b2e;fill-opacity:1;" d="M 94.410156 46.347656 L 94.410156 0.0703125 C 119.972656 0.0703125 140.691406 20.789062 140.691406 46.347656 Z M 94.410156 46.347656 "/></g></g></svg>