<svg xmlns="http://www.w3.org/2000/svg" viewBox="0 0 232.61 64.11"><defs><style>.cls-1{fill:#231f20;}.cls-2{fill:#ef3d23;}</style></defs><g id="Layer_2" data-name="Layer 2"><g id="Layer_1-2" data-name="Layer 1"><path class="cls-1" d="M66.63,41.83A7.07,7.07,0,0,1,63.19,41,4.88,4.88,0,0,1,61,38.54l1.29-.65A3.9,3.9,0,0,0,64,39.72a5.34,5.34,0,0,0,2.68.64,5.21,5.21,0,0,0,2-.36A3.28,3.28,0,0,0,70,39a2.79,2.79,0,0,0,.51-1.68A2.23,2.23,0,0,0,70,35.62a3.59,3.59,0,0,0-1.49-.84c-.61-.18-1.27-.34-2-.49s-1.21-.28-1.82-.47A6.72,6.72,0,0,1,63,33.07a3.77,3.77,0,0,1-1.23-1.25,3.86,3.86,0,0,1-.45-2A3.9,3.9,0,0,1,62,27.58,5,5,0,0,1,63.85,26a5.76,5.76,0,0,1,2.56-.57,6.33,6.33,0,0,1,3.16.81,4.94,4.94,0,0,1,2.1,2.4l-1.28.67a3.89,3.89,0,0,0-1.57-1.8,4.73,4.73,0,0,0-2.46-.62,4.09,4.09,0,0,0-1.74.37,3.3,3.3,0,0,0-1.29,1,2.44,2.44,0,0,0-.5,1.5,2.16,2.16,0,0,0,.58,1.62,3.7,3.7,0,0,0,1.51.86c.63.19,1.29.36,2,.52s1.22.29,1.83.47a6.57,6.57,0,0,1,1.65.76,3.62,3.62,0,0,1,1.2,1.26,3.82,3.82,0,0,1,.46,2,4,4,0,0,1-.72,2.39,4.83,4.83,0,0,1-1.94,1.59A6.34,6.34,0,0,1,66.63,41.83Z"/><path class="cls-1" d="M80.62,41.88a5.89,5.89,0,0,1-3.07-.81,5.7,5.7,0,0,1-2.15-2.18,6.22,6.22,0,0,1-.78-3.11,6.51,6.51,0,0,1,.72-3.06,5.68,5.68,0,0,1,2-2.2,5.57,5.57,0,0,1,3-.81,5.75,5.75,0,0,1,3,.74,5.21,5.21,0,0,1,1.94,2,6.21,6.21,0,0,1,.7,2.95v.89H75.7l.38-1a5.06,5.06,0,0,0,.43,2.6,4.42,4.42,0,0,0,4.11,2.56A5,5,0,0,0,82.84,40a3.72,3.72,0,0,0,1.64-1.6l1.15.63a5.21,5.21,0,0,1-2.1,2.16A5.92,5.92,0,0,1,80.62,41.88Zm-4.49-6.75h8.33A4.26,4.26,0,0,0,83.89,33a3.66,3.66,0,0,0-1.45-1.39,4.31,4.31,0,0,0-2.09-.5,4.16,4.16,0,0,0-2.11.53,3.93,3.93,0,0,0-1.45,1.44A5,5,0,0,0,76.13,35.13Z"/><path class="cls-1" d="M95.21,41.9a6.14,6.14,0,0,1-3.1-.8,6.08,6.08,0,0,1-2.2-2.19,5.89,5.89,0,0,1-.82-3.08V24.64h1.49V34.2l-.87.91a5.05,5.05,0,0,1,.75-2.69,5.53,5.53,0,0,1,4.8-2.69,5.94,5.94,0,0,1,3.09.81,5.72,5.72,0,0,1,2.16,2.18,6.13,6.13,0,0,1,.8,3.11,5.88,5.88,0,0,1-.81,3,6.13,6.13,0,0,1-2.17,2.21A5.92,5.92,0,0,1,95.21,41.9Zm0-1.42a4.46,4.46,0,0,0,2.34-.63,4.8,4.8,0,0,0,1.66-1.69,4.77,4.77,0,0,0,0-4.67,4.77,4.77,0,0,0-1.66-1.71,4.66,4.66,0,0,0-4.68,0,4.88,4.88,0,0,0-1.67,1.71,4.71,4.71,0,0,0,0,4.67,4.91,4.91,0,0,0,1.67,1.69A4.46,4.46,0,0,0,95.21,40.48Z"/><path class="cls-1" d="M109.37,41.88a5.6,5.6,0,0,1-3-.83,6,6,0,0,1-2.11-2.21,6.11,6.11,0,0,1-.78-3.06,5.9,5.9,0,0,1,.8-3,6,6,0,0,1,2.18-2.19,6,6,0,0,1,3.11-.82,6,6,0,0,1,3.11.81,6.1,6.1,0,0,1,2.2,2.17,5.89,5.89,0,0,1,.81,3.07v5.86h-1.41V37.17l.62-.91a5.65,5.65,0,0,1-.72,2.83,5.46,5.46,0,0,1-2,2A5.36,5.36,0,0,1,109.37,41.88Zm.19-1.42a4.39,4.39,0,0,0,2.35-.64,4.59,4.59,0,0,0,1.67-1.69,4.74,4.74,0,0,0,0-4.65,4.69,4.69,0,0,0-1.67-1.7,4.68,4.68,0,0,0-4.69,0,4.72,4.72,0,0,0-1.65,1.7,4.67,4.67,0,0,0,0,4.65,4.61,4.61,0,0,0,1.65,1.69A4.38,4.38,0,0,0,109.56,40.46Z"/><path class="cls-1" d="M121,41.64h-1.49V34.46a5.41,5.41,0,0,1,.51-2.41,3.77,3.77,0,0,1,1.45-1.63,4.17,4.17,0,0,1,2.29-.59,4.59,4.59,0,0,1,1.06.11,4.71,4.71,0,0,1,1,.32v1.51a3.51,3.51,0,0,0-.92-.38,4,4,0,0,0-1-.12,2.63,2.63,0,0,0-2.1.89,3.46,3.46,0,0,0-.78,2.37Z"/><path class="cls-1" d="M132.67,41.88a5.6,5.6,0,0,1-3-.83,6,6,0,0,1-2.11-2.21,6.11,6.11,0,0,1-.78-3.06,6,6,0,0,1,3-5.23,5.92,5.92,0,0,1,3.11-.82,6.09,6.09,0,0,1,5.3,3,5.9,5.9,0,0,1,.82,3.07v5.86h-1.42V37.17l.62-.91a5.65,5.65,0,0,1-.72,2.83,5.51,5.51,0,0,1-1.95,2A5.4,5.4,0,0,1,132.67,41.88Zm.2-1.42a4.44,4.44,0,0,0,2.35-.64,4.69,4.69,0,0,0,1.67-6.34,4.77,4.77,0,0,0-1.67-1.7,4.52,4.52,0,0,0-2.35-.63,4.41,4.41,0,0,0-2.34.63,4.74,4.74,0,0,0-1.66,1.7,4.74,4.74,0,0,0,0,4.65,4.64,4.64,0,0,0,1.66,1.69A4.33,4.33,0,0,0,132.87,40.46Z"/><path class="cls-1" d="M144,41.66h-1.56l2.31-14.54a1.92,1.92,0,0,1,.72-1.31,2.07,2.07,0,0,1,1.32-.45,2.18,2.18,0,0,1,1.22.36,1.88,1.88,0,0,1,.77,1.13L152.19,39c.09.34.22.51.38.51a.26.26,0,0,0,.24-.12A1.3,1.3,0,0,0,153,39l3.44-12.14a1.91,1.91,0,0,1,.78-1.14,2.14,2.14,0,0,1,1.23-.37,2,2,0,0,1,1.31.45,2,2,0,0,1,.68,1.35l2.09,14.45H161l-2-14a1.89,1.89,0,0,0-.18-.64.5.5,0,0,0-.47-.22.53.53,0,0,0-.42.2,1.47,1.47,0,0,0-.28.56l-3.55,12.22a1.51,1.51,0,0,1-.57.84,1.63,1.63,0,0,1-.94.29,1.68,1.68,0,0,1-.94-.29,1.36,1.36,0,0,1-.57-.82l-3.58-12.28a1.38,1.38,0,0,0-.25-.57.52.52,0,0,0-.42-.18.53.53,0,0,0-.44.22,1.36,1.36,0,0,0-.26.65Z"/><path class="cls-1" d="M171.17,41.88a6,6,0,0,1-3.11-.83,6.18,6.18,0,0,1-2.19-2.21,5.85,5.85,0,0,1-.82-3.06,5.79,5.79,0,0,1,.82-3.05,6.13,6.13,0,0,1,2.2-2.18,6.1,6.1,0,0,1,8.39,8.29,6.08,6.08,0,0,1-2.18,2.21A6,6,0,0,1,171.17,41.88Zm0-1.42a4.38,4.38,0,0,0,2.34-.64,4.7,4.7,0,0,0,1.66-6.34,4.74,4.74,0,0,0-1.66-1.7,4.66,4.66,0,0,0-4.68,0,4.85,4.85,0,0,0-1.67,1.7,4.67,4.67,0,0,0,0,4.65,4.74,4.74,0,0,0,1.67,1.69A4.38,4.38,0,0,0,171.17,40.46Z"/><path class="cls-1" d="M182.23,41.64h-1.48v-17h1.48Zm-.29-5.21V35.11h2.55v1.32Zm8.72,5.21h-1.95l-4.15-4.18a2.16,2.16,0,0,1,.05-3.26l4.2-4.2h1.87l-5.09,5.08a2.06,2.06,0,0,0-.27.35.75.75,0,0,0-.11.37.68.68,0,0,0,.11.35,2.17,2.17,0,0,0,.27.37Z"/><path class="cls-1" d="M198,41.88a5.93,5.93,0,0,1-3.11-.83,6.29,6.29,0,0,1-2.2-2.21,5.93,5.93,0,0,1-.81-3.06,5.87,5.87,0,0,1,.81-3.05,6.16,6.16,0,0,1,2.21-2.18,6.31,6.31,0,0,1,6.22,0,6.07,6.07,0,0,1,2.17,2.19,6.21,6.21,0,0,1,0,6.1,6.18,6.18,0,0,1-2.19,2.21A5.92,5.92,0,0,1,198,41.88Zm0-1.42a4.38,4.38,0,0,0,2.34-.64A4.69,4.69,0,0,0,202,38.13a4.74,4.74,0,0,0,0-4.65,4.8,4.8,0,0,0-1.65-1.7,4.46,4.46,0,0,0-2.34-.63,4.41,4.41,0,0,0-2.34.63,4.77,4.77,0,0,0-1.67,1.7,4.61,4.61,0,0,0,0,4.65,4.67,4.67,0,0,0,1.67,1.69A4.33,4.33,0,0,0,198,40.46Z"/><path class="cls-1" d="M212.62,31.15a3.65,3.65,0,0,0-2.22.65A4.09,4.09,0,0,0,209,33.5a5.63,5.63,0,0,0-.47,2.3v5.84h-1.49v-6a6.76,6.76,0,0,1,.66-3,5.18,5.18,0,0,1,1.9-2.14,5.48,5.48,0,0,1,3-.79,5.7,5.7,0,0,1,3.06.78,5.16,5.16,0,0,1,1.93,2.13,6.61,6.61,0,0,1,.67,3v6h-1.49V35.83a5.6,5.6,0,0,0-.48-2.32,4.13,4.13,0,0,0-1.4-1.71A3.84,3.84,0,0,0,212.62,31.15Z"/><path class="cls-1" d="M227.28,41.88a5.89,5.89,0,0,1-3.07-.81,5.77,5.77,0,0,1-2.15-2.18,6.22,6.22,0,0,1-.78-3.11,6.51,6.51,0,0,1,.72-3.06,5.63,5.63,0,0,1,2-2.2,5.52,5.52,0,0,1,3-.81,5.72,5.72,0,0,1,2.95.74,5.21,5.21,0,0,1,1.94,2,6.09,6.09,0,0,1,.7,2.95v.89H222.36l.38-1a5,5,0,0,0,.44,2.6,4.3,4.3,0,0,0,1.62,1.86,4.39,4.39,0,0,0,2.48.7A5,5,0,0,0,229.5,40a3.72,3.72,0,0,0,1.64-1.6l1.16.63a5.34,5.34,0,0,1-2.1,2.16A6,6,0,0,1,227.28,41.88Zm-4.49-6.75h8.33a4.26,4.26,0,0,0-.56-2.12,3.68,3.68,0,0,0-1.46-1.39,4.27,4.27,0,0,0-2.08-.5,4.2,4.2,0,0,0-2.12.53,4,4,0,0,0-1.45,1.44A5,5,0,0,0,222.79,35.13Z"/><path class="cls-1" d="M154,54.11l-1.9-8.6h.52L154.5,54a.87.87,0,0,0,.2.41.4.4,0,0,0,.29.12.53.53,0,0,0,.33-.14.71.71,0,0,0,.22-.42l1.79-7.71a.92.92,0,0,1,.31-.52.81.81,0,0,1,.49-.17.79.79,0,0,1,.49.17.88.88,0,0,1,.31.5l1.91,7.7a1.15,1.15,0,0,0,.23.43.45.45,0,0,0,.32.15.39.39,0,0,0,.3-.14.74.74,0,0,0,.17-.39l1.66-8.46h.5l-1.68,8.54a1.17,1.17,0,0,1-.32.68.84.84,0,0,1-.59.24,1,1,0,0,1-.64-.23,1.49,1.49,0,0,1-.4-.7l-1.9-7.69a.66.66,0,0,0-.15-.25.35.35,0,0,0-.42,0,.57.57,0,0,0-.16.25L156,54.11a1.07,1.07,0,0,1-.38.64A.94.94,0,0,1,155,55a1,1,0,0,1-.6-.21A1.16,1.16,0,0,1,154,54.11Z"/><path class="cls-1" d="M166.53,54.85H166V45h.49v5.32h-.19a3,3,0,0,1,.54-1.22,3.06,3.06,0,0,1,1-.84,3.11,3.11,0,0,1,1.36-.3,3.08,3.08,0,0,1,1.64.43,2.84,2.84,0,0,1,1,1.18,4,4,0,0,1,.36,1.74v3.53h-.49V51.33a3.59,3.59,0,0,0-.28-1.44,2.42,2.42,0,0,0-.87-1,2.45,2.45,0,0,0-1.42-.39,2.66,2.66,0,0,0-1.41.38,2.61,2.61,0,0,0-1,1.06,3.2,3.2,0,0,0-.35,1.53Z"/><path class="cls-1" d="M177.7,55a3.44,3.44,0,0,1-1.77-.47,3.49,3.49,0,0,1-1.26-1.27,3.4,3.4,0,0,1-.47-1.77,3.31,3.31,0,0,1,.48-1.75A3.57,3.57,0,0,1,176,48.44,3.31,3.31,0,0,1,177.7,48a3.48,3.48,0,0,1,3.5,3.49,3.47,3.47,0,0,1-1.72,3A3.43,3.43,0,0,1,177.7,55Zm0-.48a2.93,2.93,0,0,0,1.52-.4A3.13,3.13,0,0,0,180.3,53a3,3,0,0,0,.41-1.53A2.93,2.93,0,0,0,180.3,50a3.22,3.22,0,0,0-1.08-1.09,2.93,2.93,0,0,0-1.52-.41,2.9,2.9,0,0,0-1.51.41A3.16,3.16,0,0,0,175.1,50a3,3,0,0,0-.4,1.51,3,3,0,0,0,1.49,2.62A2.89,2.89,0,0,0,177.7,54.48Z"/><path class="cls-1" d="M183.37,45h.49v9.84h-.49Z"/><path class="cls-1" d="M189.43,55a3.37,3.37,0,0,1-1.75-.47,3.31,3.31,0,0,1-1.22-1.27,3.58,3.58,0,0,1-.45-1.79,3.72,3.72,0,0,1,.42-1.76,3.25,3.25,0,0,1,1.15-1.26,3.1,3.1,0,0,1,1.71-.48,3.14,3.14,0,0,1,1.66.43,3,3,0,0,1,1.12,1.15,3.48,3.48,0,0,1,.4,1.71v.36h-6.13l.18-.5a3.27,3.27,0,0,0,.26,1.69A3,3,0,0,0,187.83,54a2.85,2.85,0,0,0,1.59.46,3.12,3.12,0,0,0,1.39-.32,2.68,2.68,0,0,0,1.06-1l.39.24a3.24,3.24,0,0,1-1.21,1.2A3.41,3.41,0,0,1,189.43,55Zm-2.9-3.8H192a3,3,0,0,0-.36-1.45,2.57,2.57,0,0,0-1-1,2.69,2.69,0,0,0-1.39-.35,2.56,2.56,0,0,0-1.39.37,2.66,2.66,0,0,0-.95,1A3.41,3.41,0,0,0,186.53,51.19Z"/><path class="cls-1" d="M197.31,54.93a3.91,3.91,0,0,1-1.92-.48,2.71,2.71,0,0,1-1.23-1.38l.44-.22A2.48,2.48,0,0,0,195.65,54a3.25,3.25,0,0,0,1.66.42,3.3,3.3,0,0,0,1.29-.24,2.08,2.08,0,0,0,.9-.72,1.87,1.87,0,0,0,.33-1.11,1.47,1.47,0,0,0-.37-1.09,2.41,2.41,0,0,0-1-.57c-.39-.13-.8-.24-1.23-.34l-1.06-.28a4.24,4.24,0,0,1-.94-.41,1.9,1.9,0,0,1-.67-.68,2.16,2.16,0,0,1-.24-1.08,2.21,2.21,0,0,1,.38-1.27,2.77,2.77,0,0,1,1-.88,3,3,0,0,1,1.4-.33,3.52,3.52,0,0,1,1.77.47,2.67,2.67,0,0,1,1.16,1.36l-.44.23a2.39,2.39,0,0,0-1-1.16,2.73,2.73,0,0,0-1.52-.41,2.56,2.56,0,0,0-1.12.26,2.2,2.2,0,0,0-.86.7,1.63,1.63,0,0,0-.33,1,1.39,1.39,0,0,0,.38,1.07,2.28,2.28,0,0,0,1,.56q.59.19,1.23.36l1.05.28a3.82,3.82,0,0,1,.94.41,1.93,1.93,0,0,1,.68.68,2.11,2.11,0,0,1,.26,1.1,2.25,2.25,0,0,1-.41,1.37,2.7,2.7,0,0,1-1.08.89A3.64,3.64,0,0,1,197.31,54.93Z"/><path class="cls-1" d="M205.42,55a3.41,3.41,0,0,1-1.76-.47,3.36,3.36,0,0,1-1.24-1.27,3.49,3.49,0,0,1-.46-1.77,3.38,3.38,0,0,1,.46-1.74,3.54,3.54,0,0,1,1.25-1.27,3.49,3.49,0,0,1,4.82,1.25,3.46,3.46,0,0,1,.47,1.76v3.4h-.48V52.2l.3-.63a3.42,3.42,0,0,1-.44,1.7,3.37,3.37,0,0,1-1.2,1.23A3.23,3.23,0,0,1,205.42,55Zm0-.48a2.9,2.9,0,0,0,1.52-.4A3.13,3.13,0,0,0,208.06,53a3,3,0,0,0,.41-1.53,2.93,2.93,0,0,0-.41-1.51A3.22,3.22,0,0,0,207,48.86a3,3,0,0,0-3,0A3.16,3.16,0,0,0,202.86,50a3,3,0,0,0-.4,1.51A3,3,0,0,0,204,54.08,2.89,2.89,0,0,0,205.46,54.48Z"/><path class="cls-1" d="M211.68,45h.49v9.84h-.49Z"/><path class="cls-1" d="M217.74,55a3.35,3.35,0,0,1-1.75-.47,3.41,3.41,0,0,1-1.23-1.27,3.68,3.68,0,0,1-.44-1.79,3.83,3.83,0,0,1,.41-1.76,3.27,3.27,0,0,1,1.16-1.26A3.06,3.06,0,0,1,217.6,48a3.16,3.16,0,0,1,1.66.43,3,3,0,0,1,1.12,1.15,3.6,3.6,0,0,1,.4,1.71v.36h-6.14l.19-.5a3.27,3.27,0,0,0,.26,1.69,2.86,2.86,0,0,0,1,1.24,2.9,2.9,0,0,0,1.59.46,3.13,3.13,0,0,0,1.4-.32,2.66,2.66,0,0,0,1-1l.4.24a3.26,3.26,0,0,1-1.22,1.2A3.37,3.37,0,0,1,217.74,55Zm-2.9-3.8h5.46a3,3,0,0,0-.36-1.45,2.65,2.65,0,0,0-1-1,2.7,2.7,0,0,0-1.4-.35,2.55,2.55,0,0,0-1.38.37,2.66,2.66,0,0,0-.95,1A3.26,3.26,0,0,0,214.84,51.19Z"/><path class="cls-1" d="M223.24,54.85h-.49V50.59a3.18,3.18,0,0,1,.27-1.34,2.07,2.07,0,0,1,.79-.89A2.31,2.31,0,0,1,225,48a2.27,2.27,0,0,1,.59.07,2,2,0,0,1,.53.19v.51a1.87,1.87,0,0,0-.52-.23,2.2,2.2,0,0,0-.58-.07,1.62,1.62,0,0,0-1.32.58,2.3,2.3,0,0,0-.49,1.53Z"/><path class="cls-1" d="M229.4,55A3,3,0,0,1,228,54.6a2.48,2.48,0,0,1-1-1.1l.4-.23a2.27,2.27,0,0,0,.88.93,2.41,2.41,0,0,0,1.17.28,2.6,2.6,0,0,0,.93-.16,1.84,1.84,0,0,0,.69-.49,1.2,1.2,0,0,0,.27-.79,1,1,0,0,0-.31-.78,1.87,1.87,0,0,0-.77-.39c-.31-.09-.64-.16-1-.23a5.14,5.14,0,0,1-1-.27,1.78,1.78,0,0,1-.77-.53,1.51,1.51,0,0,1-.29-1,1.56,1.56,0,0,1,.3-1,2.12,2.12,0,0,1,.8-.64,2.64,2.64,0,0,1,1.1-.23,3.26,3.26,0,0,1,.9.13,2.31,2.31,0,0,1,.78.4,2.15,2.15,0,0,1,.57.69l-.42.24a1.85,1.85,0,0,0-.79-.78,2.43,2.43,0,0,0-1-.23,1.91,1.91,0,0,0-.81.18,1.55,1.55,0,0,0-.64.47,1.12,1.12,0,0,0-.25.71,1,1,0,0,0,.3.77,1.73,1.73,0,0,0,.75.39c.31.09.64.16,1,.23a7.15,7.15,0,0,1,1,.28,2,2,0,0,1,.77.53,1.5,1.5,0,0,1,.3,1,1.64,1.64,0,0,1-.33,1,2.24,2.24,0,0,1-.87.66A2.85,2.85,0,0,1,229.4,55Z"/><path class="cls-2" d="M31.59,58A19.39,19.39,0,0,0,39,56.6a12,12,0,0,0,5.22-4,10.28,10.28,0,0,0,1.94-6.3,8.34,8.34,0,0,0-2.12-6.16A13,13,0,0,0,38.47,37Q35,36,31.05,35.18c-2.29-.48-4.56-1.06-6.84-1.75a25.74,25.74,0,0,1-6.3-2.84,13.52,13.52,0,0,1-4.59-4.68,14.29,14.29,0,0,1-1.71-7.38A14.73,14.73,0,0,1,13,12.22L9.62,13.53A15.11,15.11,0,0,0,5.68,39.41l23,18.37A25.4,25.4,0,0,0,31.59,58Z"/><path class="cls-2" d="M41.5,1.06,37.11,2.78A23.07,23.07,0,0,1,42.61,5a18.3,18.3,0,0,1,7.88,9l-4.77,2.52a14.6,14.6,0,0,0-5.9-6.75A17.65,17.65,0,0,0,30.6,7.46a15.37,15.37,0,0,0-6.53,1.4,12.46,12.46,0,0,0-4.86,3.87,9.15,9.15,0,0,0-1.84,5.62,8.13,8.13,0,0,0,2.16,6.08,13.69,13.69,0,0,0,5.67,3.19c2.34.72,4.82,1.38,7.47,2,2.28.48,4.55,1.07,6.84,1.76a24.59,24.59,0,0,1,6.21,2.83,13.94,13.94,0,0,1,4.49,4.73,14.42,14.42,0,0,1,1.72,7.42,15.15,15.15,0,0,1-2.7,9,18.18,18.18,0,0,1-7.29,6A22,22,0,0,1,36.27,63,15.14,15.14,0,0,0,56.81,51.26L62,17.41A15.12,15.12,0,0,0,41.5,1.06Z"/></g></g></svg>