<svg xmlns="http://www.w3.org/2000/svg" viewBox="0 0 443.3 153.06"><defs><style>.cls-1{fill:#e95e2d;}.cls-2,.cls-3{fill:#fff;}.cls-2{fill-rule:evenodd;}.cls-4{fill:#231f20;}</style></defs><g id="Layer_2" data-name="Layer 2"><g id="Layer_1-2" data-name="Layer 1"><path class="cls-1" d="M132.7,51.58c4,1.59,7.65.78,11.2-.15s7-2.26,10.56-3.3a8.84,8.84,0,0,1,2.61.06c-.14.87,0,2-.48,2.58a72.62,72.62,0,0,1-8,8.21c-5.89,4.77-12.42,8.45-20,9.9-.92.17-1.85.34-2.78.42-4.08.35-8.15.64-12.22,1-4.42.37-8,2.65-11.31,5.3-3.81,3-6.92,6.57-7.87,11.52-5.74-1-7.83-4.14-8-12.57C82.6,75,78.78,75.17,75.1,76,67.55,77.64,61,81.19,56.29,87.54c-5.35,7.2-5.77,14.31-.95,21.91,5.57,8.79,13.71,13.52,24.32,14.41-4.22,2.74-8.9,3.89-13.54,5.16a38,38,0,0,0,18.11-2.55c9.3-3.45,17.46-8.86,25.39-14.66,7.2-5.26,15-9.12,23.91-10.55,7-1.11,13.85-.77,20.3,1.82-3.12,1.82-6.55,3.34-9.38,5.61a42.65,42.65,0,0,0-7.88,8.28c-5,7-11.19,12.46-19.24,15.69a8.25,8.25,0,0,0-.91.58c2.48.61,4.75,1,6.94,1.73,5.26,1.71,9.28,4.94,10.94,10.37.69,2.24.6,4.72.92,7.49a11.32,11.32,0,0,1-1.56-.62c-10.13-6.59-21.38-8.09-33.07-7-6.8.66-13.53,2-20.3,3-7.56,1-15.06.19-22.43-1.43-15.49-3.42-28.93-10.63-39.61-22.52A68.56,68.56,0,0,1,.81,86.91C-2.74,60.76,5.42,38.6,24.37,20.53,36.06,9.38,50.29,3.05,66.33.85,78.79-.86,91.11.18,103.41,2.45A192.43,192.43,0,0,1,153.6,18.66a40.81,40.81,0,0,1,5.9,3.45c4.56,3.28,5.38,7.84,1.55,11.9a49.24,49.24,0,0,1-10.35,8.21c-5.39,3.23-11.17,5.83-16.78,8.7Zm-76.29-38H81.55C73.16,8.06,64.76,10.12,56.41,13.61Z"/><path class="cls-2" d="M153.84,18.91A16.52,16.52,0,0,0,157,20.37c.17-.17-5.33-3.08-5.8-3.06a11.77,11.77,0,0,0,2.66,1.6"/><path class="cls-2" d="M75,26C51.72,29.78,27.22,51.67,21.2,74.09a47.89,47.89,0,0,0,2.56,30.78c6.24,14.26,21.48,24.39,36.73,24.39,2.53,0,9.19-1,9.63-1.41a6.14,6.14,0,0,0-2.39-.21,45.8,45.8,0,0,1-31.4-12.34c-6.27-5.75-10.23-13.48-11.62-22.71C22.62,78.7,26.15,67.3,36.46,54.68A73.87,73.87,0,0,1,67,32.26c6.56-2.56,12.13-3.82,21.22-4.81l2.83-.3-2.22-.72c-3-1-9.38-1.17-13.75-.46"/><path class="cls-2" d="M41.11,27.63c-9.61,4.82-17.55,13.47-21,22.9-1,2.68-2.15,7.22-1.92,7.45s.6-.51,1.1-1.36c1.82-3,7.43-11.29,10.08-14.87A49.9,49.9,0,0,1,39.88,30.94c6.06-4.86,6.35-5.12,5.59-5.14a23,23,0,0,0-4.36,1.83"/><path class="cls-2" d="M102.75,34a20.34,20.34,0,0,0-4.15,9.14C96.22,54.77,105.82,67.45,118.24,69c3.16.39,4.05,0,1.58-.75a32.45,32.45,0,0,1-8.73-4.78,34.2,34.2,0,0,1-7.11-9.4,24,24,0,0,1-.88-17.74,20.75,20.75,0,0,1,1.49-3.54c.3-.36.31-.55,0-.55a6.37,6.37,0,0,0-1.88,1.7"/><path class="cls-2" d="M65.51,52.25c-8,1.73-18,8.45-23.46,15.73a32.85,32.85,0,0,0-6.92,19.09c-.25,5.77.44,9.62,2.52,14.16,1.25,2.73,4.57,7.63,4.93,7.27a24.14,24.14,0,0,0-1.26-4.26c-3.66-10.53-3.45-18.57.71-27.31,2.67-5.61,8.51-12.21,14.69-16.62,4.89-3.49,14.77-7.44,18.6-7.44,1.49,0,1.08-.68-.58-1a29.82,29.82,0,0,0-9.23.34"/><path class="cls-2" d="M75.45,66.05c-6.71,1.3-12.77,4-16.58,7.39-1.22,1.08-2.13,2.07-2,2.19a36.19,36.19,0,0,0,5.66-2.41c7.39-3.56,15.62-5.8,21.3-5.8,1.89,0,2.62-.58,1.23-1a52.13,52.13,0,0,0-9.59-.4"/><path class="cls-2" d="M52.14,98.74c0,1.56.07,2.14.16,1.31a15.68,15.68,0,0,0,0-2.83c-.08-.72-.15,0-.15,1.52"/><path class="cls-2" d="M122.94,119c-9,6.74-22.63,13.86-31.93,16.62-3,.87-3.16,1.33-.59,1.32,4.34,0,13.3-2.59,19-5.46a68.22,68.22,0,0,0,12.31-8.38c2.32-2.11,6.28-7.18,5.58-7.16a40.87,40.87,0,0,0-4.37,3.06"/><path class="cls-2" d="M133.83,120.47l-1.19,1.31L134,120.6a10.11,10.11,0,0,0,1.32-1.32c0-.31-.33,0-1.44,1.19"/><path class="cls-2" d="M131,123.7l-1.59,1.72,1.71-1.6c1.6-1.48,1.91-1.84,1.6-1.84A21.6,21.6,0,0,0,131,123.7"/><path class="cls-2" d="M126.73,127.26l-1,.84,1.11-.68a4.37,4.37,0,0,0,1.12-.83c0-.32-.35-.14-1.27.67"/><circle class="cls-3" cx="132.38" cy="27.76" r="5.26"/><path class="cls-4" d="M178.39,11.75V152.83h-3.21V11.75Z"/><path class="cls-4" d="M200.88,65h-10V23.19a7.74,7.74,0,0,1,1-4.1,6.93,6.93,0,0,1,2.77-2.63,7.81,7.81,0,0,1,3.67-.9,9.71,9.71,0,0,1,4.25.9,7,7,0,0,1,3,2.92L226.3,54.8a1.25,1.25,0,0,0-.51-.25,1.71,1.71,0,0,0-.36,0,.6.6,0,0,0-.43.22.89.89,0,0,0-.22.65V16.57h9.94V58.4a7.8,7.8,0,0,1-1,4.14,6.87,6.87,0,0,1-2.74,2.56,7.82,7.82,0,0,1-3.56.86,10,10,0,0,1-4.25-.9,7,7,0,0,1-3.1-2.84L199.58,26.94a1.51,1.51,0,0,0,.4.18,2.41,2.41,0,0,0,.4,0,.44.44,0,0,0,.36-.21,1.11,1.11,0,0,0,.14-.58Z"/><path class="cls-4" d="M258.48,43.78,246.81,16.57h11.31l9.93,24.33.54,1.08a.56.56,0,0,0,.54.36.65.65,0,0,0,.58-.39c.14-.27.31-.61.5-1.05l9.87-24.33h11.37l-11.8,27.21a13.43,13.43,0,0,1-4.47,5.8,10.34,10.34,0,0,1-12.17,0A13.84,13.84,0,0,1,258.48,43.78ZM274.39,65H263.88V44.72h10.51Z"/><path class="cls-4" d="M294.55,65l12.82-41.61a10.24,10.24,0,0,1,4.17-5.87,11.64,11.64,0,0,1,12.78,0,10.29,10.29,0,0,1,4.14,5.87L341.28,65H330.55l-11-38.52c-.28-1-.81-1.44-1.58-1.44s-1.3.48-1.58,1.44L305.28,65Zm37.87-9.93-28,.07V45.73h28Z"/><path class="cls-4" d="M362.52,65H351.86l6.55-41.68a8.85,8.85,0,0,1,3.14-5.76,9.63,9.63,0,0,1,6.15-1.95,10.8,10.8,0,0,1,5.76,1.55,7.78,7.78,0,0,1,3.39,5L385,52.42c0,.15,0,.22.07.22a.12.12,0,0,0,.11,0s0-.08,0-.18l8-30a8.24,8.24,0,0,1,3.53-5.15,10.77,10.77,0,0,1,5.83-1.62,9.22,9.22,0,0,1,6.05,2,8.76,8.76,0,0,1,2.95,5.9l6,41.47H406.87l-4.68-38a1,1,0,0,0-.07-.47.39.39,0,0,0-.54,0,.75.75,0,0,0-.18.32L392.4,59a7.21,7.21,0,0,1-2.77,4.1,7.88,7.88,0,0,1-4.58,1.37,8.37,8.37,0,0,1-4.53-1.3,6.13,6.13,0,0,1-2.74-4l-9-32.33c0-.19,0-.31-.11-.36a.49.49,0,0,0-.25-.07.44.44,0,0,0-.32.11.58.58,0,0,0-.11.4Z"/><path class="cls-4" d="M432.79,16.57H443.3V65H432.79Z"/><path class="cls-4" d="M200.88,125h-10V83.19a7.74,7.74,0,0,1,1-4.1,6.93,6.93,0,0,1,2.77-2.63,7.81,7.81,0,0,1,3.67-.9,9.71,9.71,0,0,1,4.25.9,7,7,0,0,1,3,2.92L226.3,114.8a1.25,1.25,0,0,0-.51-.25,1.71,1.71,0,0,0-.36,0,.6.6,0,0,0-.43.22.89.89,0,0,0-.22.65V76.57h9.94V118.4a7.8,7.8,0,0,1-1,4.14,6.87,6.87,0,0,1-2.74,2.56,7.82,7.82,0,0,1-3.56.86,10,10,0,0,1-4.25-.9,7,7,0,0,1-3.1-2.84L199.58,86.94a1.51,1.51,0,0,0,.4.18,2.41,2.41,0,0,0,.4,0,.44.44,0,0,0,.36-.21,1.11,1.11,0,0,0,.14-.58Z"/><path class="cls-4" d="M258.48,103.78,246.81,76.57h11.31l9.93,24.33.54,1.08a.56.56,0,0,0,.54.36.65.65,0,0,0,.58-.39c.14-.27.31-.61.5-1l9.87-24.33h11.37l-11.8,27.21a13.43,13.43,0,0,1-4.47,5.8,10.34,10.34,0,0,1-12.17,0A13.84,13.84,0,0,1,258.48,103.78ZM274.39,125H263.88v-20.3h10.51Z"/><path class="cls-4" d="M294.55,125l12.82-41.61a10.24,10.24,0,0,1,4.17-5.87,11.64,11.64,0,0,1,12.78,0,10.29,10.29,0,0,1,4.14,5.87L341.28,125H330.55l-11-38.52c-.28-1-.81-1.44-1.58-1.44s-1.3.48-1.58,1.44L305.28,125Zm37.87-9.93-28,.07v-9.43h28Z"/><path class="cls-4" d="M362.52,125H351.86l6.55-41.68a8.85,8.85,0,0,1,3.14-5.76,9.63,9.63,0,0,1,6.15-2,10.8,10.8,0,0,1,5.76,1.55,7.78,7.78,0,0,1,3.39,5L385,112.42c0,.15,0,.22.07.22a.12.12,0,0,0,.11,0s0-.08,0-.18l8-30a8.24,8.24,0,0,1,3.53-5.15,10.77,10.77,0,0,1,5.83-1.62,9.22,9.22,0,0,1,6.05,2,8.76,8.76,0,0,1,2.95,5.9l6,41.47H406.87l-4.68-38a1,1,0,0,0-.07-.47.39.39,0,0,0-.54,0,.75.75,0,0,0-.18.32l-9,32.12a7.21,7.21,0,0,1-2.77,4.1,7.88,7.88,0,0,1-4.58,1.37,8.37,8.37,0,0,1-4.53-1.3,6.13,6.13,0,0,1-2.74-4l-9-32.33c0-.19,0-.31-.11-.36a.49.49,0,0,0-.25-.07.44.44,0,0,0-.32.11.58.58,0,0,0-.11.4Z"/><path class="cls-4" d="M432.79,76.57H443.3V125H432.79Z"/><path class="cls-4" d="M193,153a7.49,7.49,0,0,1-3.72-.92,5.3,5.3,0,0,1-2.39-2.64l1.4-.7a4.29,4.29,0,0,0,1.81,2,5.84,5.84,0,0,0,2.9.7,5.55,5.55,0,0,0,2.14-.39,3.38,3.38,0,0,0,1.51-1.15,2.92,2.92,0,0,0,.56-1.82,2.4,2.4,0,0,0-.61-1.78,3.82,3.82,0,0,0-1.61-.91c-.67-.2-1.38-.37-2.15-.53s-1.31-.31-2-.51a7.33,7.33,0,0,1-1.82-.82,3.82,3.82,0,0,1-1.33-1.35,4.1,4.1,0,0,1-.49-2.13,4.21,4.21,0,0,1,.75-2.46,5.26,5.26,0,0,1,2-1.7,6.09,6.09,0,0,1,2.77-.62,6.74,6.74,0,0,1,3.41.88,5.28,5.28,0,0,1,2.28,2.6l-1.38.73a4.22,4.22,0,0,0-1.7-1.95,5.12,5.12,0,0,0-2.67-.68,4.56,4.56,0,0,0-1.88.4,3.63,3.63,0,0,0-1.4,1.12,2.64,2.64,0,0,0-.54,1.63,2.33,2.33,0,0,0,.63,1.75,3.81,3.81,0,0,0,1.63.92c.68.21,1.4.4,2.16.58s1.32.3,2,.5a7.32,7.32,0,0,1,1.79.82,4.06,4.06,0,0,1,1.3,1.37,4.18,4.18,0,0,1,.5,2.14,4.38,4.38,0,0,1-.78,2.59,5.3,5.3,0,0,1-2.11,1.73A6.87,6.87,0,0,1,193,153Z"/><path class="cls-4" d="M220,152.81H210a1.6,1.6,0,0,1-1.3-.45,1.82,1.82,0,0,1-.36-1.19V137.08a1.83,1.83,0,0,1,.36-1.2,1.59,1.59,0,0,1,1.3-.44h9.83V137H210v14.25H220Zm-.7-7.91h-9.9l-.16-1.56h10.06Z"/><path class="cls-4" d="M227.89,152.81l4.88-15.55a3,3,0,0,1,1.08-1.58,3,3,0,0,1,1.71-.5,2.72,2.72,0,0,1,2.78,2.08l4.89,15.55h-1.69l-4.63-15.06a1.35,1.35,0,0,0-1.35-1.07,1.3,1.3,0,0,0-1.33,1.07l-4.65,15.06Zm12.81-4.87-10.24,0v-1.54H240.7Z"/><path class="cls-4" d="M253.89,152.81h-1.67V137.08a1.78,1.78,0,0,1,.37-1.2,1.58,1.58,0,0,1,1.3-.44h9.9V137h-9.9Zm9.3-7.23h-9.82l-.19-1.56h10Z"/><path class="cls-4" d="M279.91,153.06a8.72,8.72,0,0,1-3.44-.67,8.46,8.46,0,0,1-2.81-1.9,8.7,8.7,0,0,1-1.89-2.86,9.17,9.17,0,0,1-.67-3.53,9,9,0,0,1,.67-3.49,8.78,8.78,0,0,1,1.89-2.83,8.46,8.46,0,0,1,2.81-1.9,9.07,9.07,0,0,1,6.89,0,8.48,8.48,0,0,1,2.79,1.9,8.93,8.93,0,0,1,2.55,6.32,9.17,9.17,0,0,1-.68,3.53,8.83,8.83,0,0,1-1.88,2.86,8.59,8.59,0,0,1-6.23,2.57Zm0-1.58a6.66,6.66,0,0,0,2.74-.57,7.23,7.23,0,0,0,3.79-3.92,7.62,7.62,0,0,0,.54-2.89,7.47,7.47,0,0,0-.54-2.86,7.34,7.34,0,0,0-1.52-2.33,7,7,0,0,0-2.25-1.56,6.84,6.84,0,0,0-2.76-.56,6.93,6.93,0,0,0-5,2.12,7.17,7.17,0,0,0-1.52,2.33,7.47,7.47,0,0,0-.55,2.86,7.63,7.63,0,0,0,.55,2.89,7,7,0,0,0,1.52,2.34,7.15,7.15,0,0,0,2.26,1.58A6.77,6.77,0,0,0,279.91,151.48Z"/><path class="cls-4" d="M305.05,153.06a8.72,8.72,0,0,1-3.44-.67,8.57,8.57,0,0,1-2.81-1.9,8.67,8.67,0,0,1-1.88-2.86,9,9,0,0,1-.68-3.53,8.88,8.88,0,0,1,2.56-6.32,8.57,8.57,0,0,1,2.81-1.9,9.07,9.07,0,0,1,6.89,0,8.38,8.38,0,0,1,2.79,1.9,9.09,9.09,0,0,1,1.88,2.83,9,9,0,0,1,.67,3.49,9.17,9.17,0,0,1-.67,3.53,8.86,8.86,0,0,1-1.89,2.86,8.54,8.54,0,0,1-6.23,2.57Zm0-1.58a6.74,6.74,0,0,0,2.75-.57,7.26,7.26,0,0,0,2.26-1.58,7,7,0,0,0,1.52-2.34,7.63,7.63,0,0,0,.55-2.89,7.47,7.47,0,0,0-.55-2.86,7.17,7.17,0,0,0-1.52-2.33,7,7,0,0,0-2.25-1.56,6.84,6.84,0,0,0-2.76-.56,7,7,0,0,0-2.77.56,7,7,0,0,0-2.26,1.56,7.17,7.17,0,0,0-1.52,2.33,7.47,7.47,0,0,0-.54,2.86,7.62,7.62,0,0,0,.54,2.89,7,7,0,0,0,1.52,2.34,7.26,7.26,0,0,0,2.26,1.58A6.8,6.8,0,0,0,305.05,151.48Z"/><path class="cls-4" d="M337.94,144a9.07,9.07,0,0,1-.72,3.69,8.11,8.11,0,0,1-2,2.79,8.91,8.91,0,0,1-3,1.74,11,11,0,0,1-3.68.6h-5.46V135.44h5.64a10.49,10.49,0,0,1,4.84,1.06,7.94,7.94,0,0,1,3.24,3A8.61,8.61,0,0,1,337.94,144Zm-1.71,0a6.85,6.85,0,0,0-1-3.68,6.51,6.51,0,0,0-2.65-2.44,8.36,8.36,0,0,0-3.9-.87h-4v14.25h3.79a8.83,8.83,0,0,0,3-.5,7.72,7.72,0,0,0,2.46-1.42,6.33,6.33,0,0,0,1.66-2.27A7.47,7.47,0,0,0,336.23,144Z"/></g></g></svg>