<svg xmlns="http://www.w3.org/2000/svg" viewBox="0 0 443.3 153.06"><defs><style>.cls-1{fill:#fff;}.cls-2{fill:#f9f9f9;}</style></defs><g id="Layer_2" data-name="Layer 2"><g id="Layer_1-2" data-name="Layer 1"><path class="cls-1" d="M150.7,42.22A49.43,49.43,0,0,0,161.05,34c3.83-4.06,3-8.62-1.55-11.9a41,41,0,0,0-5.9-3.45A192.3,192.3,0,0,0,103.41,2.45C91.11.18,78.79-.86,66.33.85c-16,2.2-30.27,8.53-42,19.68C5.42,38.6-2.74,60.76.81,86.91a68.53,68.53,0,0,0,17.44,37.35c10.68,11.89,24.12,19.1,39.61,22.52a64.6,64.6,0,0,0,22.43,1.43c6.77-1,13.5-2.34,20.3-3,11.69-1.09,22.94.41,33.07,7a11,11,0,0,0,1.56.62c-.32-2.77-.23-5.25-.92-7.49-1.66-5.43-5.68-8.66-10.94-10.37-2.19-.73-4.46-1.12-6.94-1.73a7.8,7.8,0,0,1,.91-.58c8-3.23,14.24-8.69,19.24-15.69a42.36,42.36,0,0,1,7.88-8.28c2.83-2.27,6.26-3.79,9.38-5.61-6.45-2.59-13.3-2.93-20.3-1.82-8.91,1.43-16.71,5.29-23.91,10.55-7.93,5.8-16.09,11.21-25.39,14.66A38,38,0,0,1,66.12,129c4.64-1.27,9.32-2.42,13.54-5.16-10.61-.89-18.75-5.62-24.32-14.41-4.82-7.6-4.4-14.71.95-21.91C61,81.19,67.55,77.64,75.1,76a110.22,110.22,0,0,1,11.31-1.45c.17,8.43,2.26,11.57,8,12.57,1-5,4.06-8.52,7.87-11.52,3.31-2.65,6.89-4.93,11.31-5.3,4.07-.36,8.14-.65,12.22-1,.93-.08,1.86-.25,2.78-.42,7.58-1.45,14.11-5.13,20-9.9a73,73,0,0,0,8-8.21c.48-.58.34-1.71.48-2.58a8.78,8.78,0,0,0-2.61-.06c-3.56,1-7,2.37-10.56,3.3s-7.2,1.74-11.2.15l1.22-.66C139.53,48.05,145.31,45.45,150.7,42.22ZM91,135.62c9.3-2.76,22.93-9.88,31.93-16.62a41.25,41.25,0,0,1,4.37-3.06c.7,0-3.26,5-5.58,7.16a68.36,68.36,0,0,1-12.31,8.38c-5.7,2.87-14.66,5.46-19,5.46C87.85,137,88,136.49,91,135.62Zm-9.46-122H56.48C64.81,10.11,73.19,8.08,81.55,13.58ZM18.19,58c-.23-.23.92-4.77,1.92-7.45,3.45-9.43,11.39-18.08,21-22.9h0a23.13,23.13,0,0,1,4.36-1.83c.76,0,.47.28-5.59,5.14A50.12,50.12,0,0,0,29.37,41.75c-2.65,3.58-8.26,11.87-10.08,14.87C18.79,57.47,18.42,58.21,18.19,58ZM42,76.93c-4.16,8.74-4.37,16.78-.71,27.31a24.24,24.24,0,0,1,1.26,4.26c-.36.36-3.68-4.54-4.93-7.27-2.08-4.54-2.77-8.39-2.52-14.16A32.87,32.87,0,0,1,42.05,68c5.46-7.28,15.46-14,23.46-15.73v0a29.78,29.78,0,0,1,9.23-.34c1.66.32,2.07,1,.58,1-3.83,0-13.71,4-18.6,7.44C50.54,64.72,44.7,71.32,42,76.93Zm41.8-9.51c-5.68,0-13.91,2.24-21.3,5.8a36.18,36.18,0,0,1-5.66,2.41c-.13-.12.78-1.11,2-2.19,3.81-3.39,9.87-6.09,16.58-7.39l0,0a52.13,52.13,0,0,1,9.59.4C86.45,66.84,85.72,67.42,83.83,67.42Zm4.39-40c-9.09,1-14.66,2.25-21.22,4.81A73.86,73.86,0,0,0,36.46,54.68C26.15,67.3,22.62,78.7,24.71,92.59c1.39,9.23,5.35,17,11.62,22.71a45.81,45.81,0,0,0,31.4,12.34,6,6,0,0,1,2.39.21c-.44.41-7.1,1.41-9.63,1.41-15.25,0-30.49-10.13-36.73-24.39A47.88,47.88,0,0,1,21.2,74.09C27.22,51.67,51.72,29.78,75,26l.08,0c4.37-.71,10.75-.54,13.75.46l2.22.72Zm30,41.55c-12.42-1.55-22-14.23-19.64-25.86A20.38,20.38,0,0,1,102.75,34l0-.06a6.49,6.49,0,0,1,1.88-1.7c.31,0,.3.19,0,.55a21.57,21.57,0,0,0-1.49,3.54A24,24,0,0,0,104,54.07a34.2,34.2,0,0,0,7.11,9.4,32.42,32.42,0,0,0,8.73,4.78C122.29,69,121.4,69.39,118.24,69Zm14.14-36a5.26,5.26,0,1,1,5.26-5.26A5.26,5.26,0,0,1,132.38,33Z"/><path class="cls-1" d="M178.39,11.75V152.83h-3.21V11.75Z"/><path class="cls-2" d="M200.88,65h-10V23.19a7.75,7.75,0,0,1,1-4.1,6.94,6.94,0,0,1,2.77-2.63,7.81,7.81,0,0,1,3.67-.9,9.73,9.73,0,0,1,4.25.9,7,7,0,0,1,3,2.92L226.3,54.8a1.22,1.22,0,0,0-.51-.25h-.36a.6.6,0,0,0-.43.22.86.86,0,0,0-.22.65V16.57h9.94V58.4a7.77,7.77,0,0,1-1,4.14A6.89,6.89,0,0,1,231,65.1a7.85,7.85,0,0,1-3.56.86,9.87,9.87,0,0,1-4.25-.9,7,7,0,0,1-3.1-2.84L199.58,26.94a1.44,1.44,0,0,0,.4.18h.4a.42.42,0,0,0,.36-.21,1.08,1.08,0,0,0,.14-.58Z"/><path class="cls-2" d="M258.48,43.78,246.81,16.57h11.31l9.93,24.33.54,1.08a.56.56,0,0,0,.54.36.66.66,0,0,0,.58-.39c.14-.27.31-.61.5-1.05l9.87-24.33h11.37l-11.8,27.21a13.38,13.38,0,0,1-4.47,5.8,10.34,10.34,0,0,1-12.17,0A13.8,13.8,0,0,1,258.48,43.78ZM274.39,65H263.88V44.72h10.51Z"/><path class="cls-2" d="M294.55,65l12.82-41.61a10.24,10.24,0,0,1,4.17-5.87,11.63,11.63,0,0,1,12.78,0,10.31,10.31,0,0,1,4.14,5.87L341.28,65H330.55l-11-38.52c-.28-1-.81-1.44-1.58-1.44s-1.3.48-1.58,1.44L305.28,65Zm37.87-9.93-28,.07V45.73h28Z"/><path class="cls-2" d="M362.52,65H351.86l6.55-41.68a8.84,8.84,0,0,1,3.14-5.76,9.61,9.61,0,0,1,6.15-1.95,10.82,10.82,0,0,1,5.76,1.55,7.78,7.78,0,0,1,3.39,5L385,52.42c0,.15,0,.22.07.22a.11.11,0,0,0,.11,0v-.18l8-30a8.26,8.26,0,0,1,3.53-5.15,10.72,10.72,0,0,1,5.83-1.62,9.26,9.26,0,0,1,6,2,8.79,8.79,0,0,1,3,5.9l6,41.47H406.87l-4.68-38a1,1,0,0,0-.07-.47.4.4,0,0,0-.54,0,.68.68,0,0,0-.18.32L392.4,59a7.21,7.21,0,0,1-2.77,4.1,7.88,7.88,0,0,1-4.58,1.37,8.35,8.35,0,0,1-4.53-1.3,6.17,6.17,0,0,1-2.74-4l-9-32.33c0-.19,0-.31-.11-.36a.45.45,0,0,0-.25-.07.42.42,0,0,0-.32.11.64.64,0,0,0-.11.4Z"/><path class="cls-2" d="M432.79,16.57H443.3V65H432.79Z"/><path class="cls-2" d="M200.88,125h-10V83.19a7.75,7.75,0,0,1,1-4.1,6.94,6.94,0,0,1,2.77-2.63,7.81,7.81,0,0,1,3.67-.9,9.73,9.73,0,0,1,4.25.9,7,7,0,0,1,3,2.92L226.3,114.8a1.22,1.22,0,0,0-.51-.25h-.36a.6.6,0,0,0-.43.22.86.86,0,0,0-.22.65V76.57h9.94V118.4a7.77,7.77,0,0,1-1,4.14A6.89,6.89,0,0,1,231,125.1a7.85,7.85,0,0,1-3.56.86,9.87,9.87,0,0,1-4.25-.9,7,7,0,0,1-3.1-2.84L199.58,86.94a1.44,1.44,0,0,0,.4.18h.4a.42.42,0,0,0,.36-.21,1.08,1.08,0,0,0,.14-.58Z"/><path class="cls-2" d="M258.48,103.78,246.81,76.57h11.31l9.93,24.33.54,1.08a.56.56,0,0,0,.54.36.66.66,0,0,0,.58-.39c.14-.27.31-.61.5-1l9.87-24.33h11.37l-11.8,27.21a13.38,13.38,0,0,1-4.47,5.8,10.34,10.34,0,0,1-12.17,0A13.81,13.81,0,0,1,258.48,103.78ZM274.39,125H263.88V104.7h10.51Z"/><path class="cls-2" d="M294.55,125l12.82-41.61a10.24,10.24,0,0,1,4.17-5.87,11.63,11.63,0,0,1,12.78,0,10.31,10.31,0,0,1,4.14,5.87L341.28,125H330.55l-11-38.52c-.28-1-.81-1.44-1.58-1.44s-1.3.48-1.58,1.44L305.28,125Zm37.87-9.93-28,.07v-9.43h28Z"/><path class="cls-2" d="M362.52,125H351.86l6.55-41.68a8.84,8.84,0,0,1,3.14-5.76,9.62,9.62,0,0,1,6.15-2,10.82,10.82,0,0,1,5.76,1.55,7.78,7.78,0,0,1,3.39,5L385,112.42c0,.15,0,.22.07.22a.11.11,0,0,0,.11,0v-.18l8-30a8.26,8.26,0,0,1,3.53-5.15,10.72,10.72,0,0,1,5.83-1.62,9.26,9.26,0,0,1,6,2,8.79,8.79,0,0,1,3,5.9l6,41.47H406.87l-4.68-38a1,1,0,0,0-.07-.47.4.4,0,0,0-.54,0,.68.68,0,0,0-.18.32l-9,32.12a7.21,7.21,0,0,1-2.77,4.1,7.88,7.88,0,0,1-4.58,1.37,8.35,8.35,0,0,1-4.53-1.3,6.17,6.17,0,0,1-2.74-4l-9-32.33c0-.19,0-.31-.11-.36a.45.45,0,0,0-.25-.07.42.42,0,0,0-.32.11.64.64,0,0,0-.11.4Z"/><path class="cls-2" d="M432.79,76.57H443.3V125H432.79Z"/><path class="cls-1" d="M193,153a7.54,7.54,0,0,1-3.72-.92,5.3,5.3,0,0,1-2.39-2.64l1.4-.7a4.29,4.29,0,0,0,1.81,2,5.87,5.87,0,0,0,2.9.7,5.6,5.6,0,0,0,2.14-.39,3.37,3.37,0,0,0,1.51-1.15,2.91,2.91,0,0,0,.56-1.82,2.39,2.39,0,0,0-.61-1.78,3.85,3.85,0,0,0-1.61-.91c-.67-.2-1.38-.37-2.15-.53s-1.31-.31-2-.51a7.26,7.26,0,0,1-1.82-.82,3.82,3.82,0,0,1-1.33-1.35,4.15,4.15,0,0,1-.49-2.13,4.23,4.23,0,0,1,.75-2.46,5.22,5.22,0,0,1,2-1.7,6.17,6.17,0,0,1,2.77-.62,6.8,6.8,0,0,1,3.41.88,5.31,5.31,0,0,1,2.28,2.6l-1.38.73a4.24,4.24,0,0,0-1.7-1.95,5.09,5.09,0,0,0-2.67-.68,4.5,4.5,0,0,0-1.88.4,3.72,3.72,0,0,0-1.4,1.12,2.6,2.6,0,0,0-.54,1.63,2.35,2.35,0,0,0,.63,1.75,3.84,3.84,0,0,0,1.63.92c.68.21,1.4.4,2.16.58s1.32.3,2,.5a7.43,7.43,0,0,1,1.79.82,4.06,4.06,0,0,1,1.3,1.37,4.22,4.22,0,0,1,.5,2.14,4.37,4.37,0,0,1-.78,2.59A5.3,5.3,0,0,1,196,152.4,6.85,6.85,0,0,1,193,153Z"/><path class="cls-1" d="M220,152.81H210a1.6,1.6,0,0,1-1.3-.45,1.81,1.81,0,0,1-.36-1.19V137.08a1.85,1.85,0,0,1,.36-1.2,1.56,1.56,0,0,1,1.3-.44h9.83V137H210v14.25h10Zm-.7-7.91h-9.9l-.16-1.56H219.3Z"/><path class="cls-1" d="M227.89,152.81l4.88-15.55a3,3,0,0,1,1.08-1.58,3,3,0,0,1,1.71-.5,2.73,2.73,0,0,1,2.78,2.08l4.89,15.55h-1.69l-4.63-15.06a1.35,1.35,0,0,0-1.35-1.07,1.3,1.3,0,0,0-1.33,1.07l-4.65,15.06Zm12.81-4.87H230.46V146.4H240.7Z"/><path class="cls-1" d="M253.89,152.81h-1.67V137.08a1.79,1.79,0,0,1,.37-1.2,1.56,1.56,0,0,1,1.3-.44h9.9V137h-9.9Zm9.3-7.23h-9.82l-.19-1.56h10Z"/><path class="cls-1" d="M279.91,153.06a8.82,8.82,0,0,1-3.44-.67,8.52,8.52,0,0,1-2.81-1.9,8.7,8.7,0,0,1-1.89-2.86,9.27,9.27,0,0,1-.67-3.53,9.07,9.07,0,0,1,.67-3.49,8.73,8.73,0,0,1,1.89-2.83,8.52,8.52,0,0,1,2.81-1.9,9,9,0,0,1,6.89,0,8.48,8.48,0,0,1,2.79,1.9,8.94,8.94,0,0,1,2.55,6.32,9.09,9.09,0,0,1-.68,3.53,8.67,8.67,0,0,1-1.88,2.86,8.58,8.58,0,0,1-6.23,2.57Zm0-1.58a6.63,6.63,0,0,0,2.74-.57,7.2,7.2,0,0,0,3.79-3.92,7.53,7.53,0,0,0,.54-2.89,7.38,7.38,0,0,0-.54-2.86,7.22,7.22,0,0,0-1.52-2.33,7,7,0,0,0-2.25-1.56,6.72,6.72,0,0,0-2.76-.56,6.93,6.93,0,0,0-5,2.12,7.22,7.22,0,0,0-1.52,2.33,7.39,7.39,0,0,0-.55,2.86,7.54,7.54,0,0,0,.55,2.89,7.26,7.26,0,0,0,3.78,3.92A6.8,6.8,0,0,0,279.91,151.48Z"/><path class="cls-1" d="M305.05,153.06a8.82,8.82,0,0,1-3.44-.67,8.69,8.69,0,0,1-4.69-4.76,9.09,9.09,0,0,1-.68-3.53,8.89,8.89,0,0,1,2.56-6.32,8.67,8.67,0,0,1,2.81-1.9,9,9,0,0,1,6.89,0,8.34,8.34,0,0,1,2.79,1.9,8.82,8.82,0,0,1,2.55,6.32,9.27,9.27,0,0,1-.67,3.53,8.86,8.86,0,0,1-1.89,2.86,8.58,8.58,0,0,1-6.23,2.57Zm0-1.58a6.68,6.68,0,0,0,2.75-.57,7.26,7.26,0,0,0,2.26-1.58,7,7,0,0,0,1.52-2.34,7.54,7.54,0,0,0,.55-2.89,7.39,7.39,0,0,0-.55-2.86,7.22,7.22,0,0,0-1.52-2.33,7,7,0,0,0-2.25-1.56,6.72,6.72,0,0,0-2.76-.56,6.93,6.93,0,0,0-5,2.12,7.22,7.22,0,0,0-1.52,2.33,7.38,7.38,0,0,0-.54,2.86,7.53,7.53,0,0,0,.54,2.89,7,7,0,0,0,1.52,2.34,7.26,7.26,0,0,0,2.26,1.58A6.77,6.77,0,0,0,305.05,151.48Z"/><path class="cls-1" d="M337.94,144a9,9,0,0,1-.72,3.69,8.14,8.14,0,0,1-2,2.79,9,9,0,0,1-3,1.74,11,11,0,0,1-3.68.6h-5.46V135.44h5.64a10.53,10.53,0,0,1,4.84,1.06,7.87,7.87,0,0,1,3.24,3A8.55,8.55,0,0,1,337.94,144Zm-1.71,0a6.82,6.82,0,0,0-1-3.68,6.49,6.49,0,0,0-2.65-2.44,8.37,8.37,0,0,0-3.9-.87h-4v14.25h3.79a8.75,8.75,0,0,0,3-.5,7.75,7.75,0,0,0,2.46-1.42,6.33,6.33,0,0,0,1.66-2.27A7.38,7.38,0,0,0,336.23,144Z"/></g></g></svg>