<svg xmlns="http://www.w3.org/2000/svg" xmlns:xlink="http://www.w3.org/1999/xlink" width="148" zoomAndPan="magnify" viewBox="0 0 110.88 110.999996" height="148" preserveAspectRatio="xMidYMid meet" version="1.2"><defs><clipPath id="b2e61ecf70"><path d="M 55.558594 55.484375 L 110.761719 55.484375 L 110.761719 110.6875 L 55.558594 110.6875 Z M 55.558594 55.484375 "/></clipPath><clipPath id="9549ef6a14"><path d="M 0 0.0585938 L 55.421875 0.0585938 L 55.421875 55.484375 L 0 55.484375 Z M 0 0.0585938 "/></clipPath><clipPath id="f655aa7cc6"><path d="M 27.710938 0.0585938 C 12.40625 0.0585938 0 12.46875 0 27.773438 C 0 43.078125 12.40625 55.484375 27.710938 55.484375 C 43.015625 55.484375 55.421875 43.078125 55.421875 27.773438 C 55.421875 12.46875 43.015625 0.0585938 27.710938 0.0585938 Z M 27.710938 0.0585938 "/></clipPath><clipPath id="a42aadd338"><path d="M 0.21875 55.484375 L 55.421875 55.484375 L 55.421875 110.6875 L 0.21875 110.6875 Z M 0.21875 55.484375 "/></clipPath></defs><g id="7507f6da90"><g clip-rule="nonzero" clip-path="url(#b2e61ecf70)"><path style=" stroke:none;fill-rule:nonzero;fill:#ff8a40;fill-opacity:1;" d="M 55.566406 110.679688 L 55.566406 55.484375 C 86.054688 55.484375 110.765625 80.195312 110.765625 110.679688 Z M 55.566406 110.679688 "/></g><g clip-rule="nonzero" clip-path="url(#9549ef6a14)"><g clip-rule="nonzero" clip-path="url(#f655aa7cc6)"><path style=" stroke:none;fill-rule:nonzero;fill:#192b3e;fill-opacity:1;" d="M 0 0.0585938 L 55.421875 0.0585938 L 55.421875 55.484375 L 0 55.484375 Z M 0 0.0585938 "/></g></g><g clip-rule="nonzero" clip-path="url(#a42aadd338)"><path style=" stroke:none;fill-rule:nonzero;fill:#fc5205;fill-opacity:1;" d="M 0.226562 110.679688 L 0.226562 55.484375 C 30.710938 55.484375 55.421875 80.195312 55.421875 110.679688 Z M 0.226562 110.679688 "/></g></g></svg>