<svg xmlns="http://www.w3.org/2000/svg" xmlns:xlink="http://www.w3.org/1999/xlink" width="137" zoomAndPan="magnify" viewBox="0 0 102.75 101.999999" height="136" preserveAspectRatio="xMidYMid meet" version="1.2"><defs><clipPath id="7abf46594b"><path d="M 0 51 L 50.875 51 L 50.875 101.859375 L 0 101.859375 Z M 0 51 "/></clipPath><clipPath id="e913627036"><path d="M 50.871094 50.921875 L 101.816406 50.921875 L 101.816406 101.867188 L 50.871094 101.867188 Z M 50.871094 50.921875 "/></clipPath><clipPath id="41e018f6cb"><path d="M 76.34375 50.921875 C 62.277344 50.921875 50.871094 62.324219 50.871094 76.394531 C 50.871094 90.460938 62.277344 101.867188 76.34375 101.867188 C 90.414062 101.867188 101.816406 90.460938 101.816406 76.394531 C 101.816406 62.324219 90.414062 50.921875 76.34375 50.921875 Z M 76.34375 50.921875 "/></clipPath><clipPath id="d6023e7ded"><path d="M 50.933594 0.125 L 101.8125 0.125 L 101.8125 51 L 50.933594 51 Z M 50.933594 0.125 "/></clipPath></defs><g id="cf0f378c87"><g clip-rule="nonzero" clip-path="url(#7abf46594b)"><path style=" stroke:none;fill-rule:nonzero;fill:#192b3e;fill-opacity:1;" d="M 50.855469 51.003906 L 50.855469 101.859375 C 22.769531 101.859375 0 79.089844 0 51.003906 Z M 50.855469 51.003906 "/></g><g clip-rule="nonzero" clip-path="url(#e913627036)"><g clip-rule="nonzero" clip-path="url(#41e018f6cb)"><path style=" stroke:none;fill-rule:nonzero;fill:#fc5205;fill-opacity:1;" d="M 50.871094 50.921875 L 101.816406 50.921875 L 101.816406 101.867188 L 50.871094 101.867188 Z M 50.871094 50.921875 "/></g></g><g clip-rule="nonzero" clip-path="url(#d6023e7ded)"><path style=" stroke:none;fill-rule:nonzero;fill:#ea5b2e;fill-opacity:1;" d="M 50.953125 50.980469 L 50.953125 0.125 C 79.042969 0.125 101.8125 22.890625 101.8125 50.980469 Z M 50.953125 50.980469 "/></g></g></svg>