<svg xmlns="http://www.w3.org/2000/svg" xmlns:xlink="http://www.w3.org/1999/xlink" width="148" zoomAndPan="magnify" viewBox="0 0 110.88 110.999996" height="148" preserveAspectRatio="xMidYMid meet" version="1.2"><defs><clipPath id="625ab7781e"><path d="M 55.234375 55.378906 L 110.675781 55.378906 L 110.675781 110.816406 L 55.234375 110.816406 Z M 55.234375 55.378906 "/></clipPath><clipPath id="22537ef758"><path d="M 0 55.484375 L 55.421875 55.484375 L 55.421875 110.90625 L 0 110.90625 Z M 0 55.484375 "/></clipPath><clipPath id="dcdc249fa3"><path d="M 27.710938 55.484375 C 12.40625 55.484375 0 67.890625 0 83.195312 C 0 98.5 12.40625 110.90625 27.710938 110.90625 C 43.015625 110.90625 55.421875 98.5 55.421875 83.195312 C 55.421875 67.890625 43.015625 55.484375 27.710938 55.484375 Z M 27.710938 55.484375 "/></clipPath><clipPath id="f39ff1a8e2"><path d="M 0 0.0585938 L 55.335938 0.0585938 L 55.335938 55.5 L 0 55.5 Z M 0 0.0585938 "/></clipPath></defs><g id="900a22bd5d"><g clip-rule="nonzero" clip-path="url(#625ab7781e)"><path style=" stroke:none;fill-rule:nonzero;fill:#e76818;fill-opacity:1;" d="M 55.351562 55.492188 L 110.675781 55.492188 C 110.675781 86.046875 85.90625 110.816406 55.351562 110.816406 Z M 55.351562 55.492188 "/></g><g clip-rule="nonzero" clip-path="url(#22537ef758)"><g clip-rule="nonzero" clip-path="url(#dcdc249fa3)"><path style=" stroke:none;fill-rule:nonzero;fill:#fc5205;fill-opacity:1;" d="M 0 55.484375 L 55.421875 55.484375 L 55.421875 110.90625 L 0 110.90625 Z M 0 55.484375 "/></g></g><g clip-rule="nonzero" clip-path="url(#f39ff1a8e2)"><path style=" stroke:none;fill-rule:nonzero;fill:#192b3e;fill-opacity:1;" d="M 0.0078125 55.386719 L 0.0078125 0.0585938 C 30.566406 0.0585938 55.335938 24.828125 55.335938 55.386719 Z M 0.0078125 55.386719 "/></g></g></svg>