<svg xmlns="http://www.w3.org/2000/svg" viewBox="0 0 315.74 315.74"><defs><style>.cls-1{fill:#f15a22;}</style></defs><g id="Layer_2" data-name="Layer 2"><g id="Layer_1-2" data-name="Layer 1"><path class="cls-1" d="M162.47,144a72.8,72.8,0,0,0-13.28-.55l0,0c-9.29,1.8-17.68,5.54-23,10.23-1.69,1.5-2.95,2.87-2.77,3a50,50,0,0,0,7.84-3.33c10.23-4.93,21.62-8,29.48-8C163.38,145.42,164.39,144.62,162.47,144Z"/><path class="cls-1" d="M148.18,123.89a41.52,41.52,0,0,0-12.78.47v.06c-11.07,2.39-24.92,11.7-32.48,21.77a45.57,45.57,0,0,0-9.58,26.43c-.34,8,.61,13.32,3.49,19.6,1.73,3.78,6.33,10.57,6.83,10.07a32.78,32.78,0,0,0-1.75-5.9c-5.06-14.58-4.77-25.71,1-37.81,3.69-7.76,11.78-16.9,20.33-23,6.77-4.83,20.45-10.3,25.75-10.3C151,125.28,150.48,124.34,148.18,123.89Z"/><path class="cls-1" d="M99.92,94.92c8.39-6.73,8.79-7.09,7.74-7.12a32.33,32.33,0,0,0-6,2.54h0C88.32,97,77.33,109,72.55,122c-1.38,3.71-3,10-2.66,10.31s.83-.7,1.53-1.88c2.52-4.15,10.28-15.63,14-20.59A69,69,0,0,1,99.92,94.92Z"/><path class="cls-1" d="M169.89,241.66c6,0,18.41-3.59,26.3-7.56a94.33,94.33,0,0,0,17-11.6c3.21-2.92,8.69-9.94,7.72-9.91a58.56,58.56,0,0,0-6,4.23c-12.46,9.33-31.32,19.19-44.2,23C166.55,241,166.33,241.67,169.89,241.66Z"/><path class="cls-1" d="M122.91,70.89h34.7C146,63.27,134.43,66.08,122.91,70.89Z"/><path class="cls-1" d="M0,0V315.74H315.74V0ZM267.66,99.17a67.83,67.83,0,0,1-14.33,11.36c-7.46,4.48-15.46,8.07-23.23,12l-1.68.91c5.53,2.2,10.59,1.08,15.5-.21s9.69-3.12,14.62-4.56a11.81,11.81,0,0,1,3.61.08c-.19,1.2,0,2.77-.66,3.57a101.68,101.68,0,0,1-11.08,11.37c-8.15,6.6-17.19,11.69-27.68,13.7-1.28.24-2.57.47-3.85.58-5.65.49-11.29.89-16.92,1.39-6.12.51-11.07,3.66-15.66,7.33-5.27,4.16-9.58,9.1-10.89,15.95-7.95-1.38-10.84-5.73-11.08-17.4-5.27.62-10.56.86-15.65,2-10.45,2.27-19.52,7.18-26,16-7.41,10-8,19.81-1.32,30.33,7.71,12.17,19,18.72,33.67,20-5.84,3.79-12.32,5.39-18.74,7.15a52.52,52.52,0,0,0,25.07-3.54c12.87-4.77,24.17-12.26,35.14-20.29,10-7.28,20.77-12.62,33.1-14.6,9.69-1.54,19.18-1.07,28.11,2.52-4.32,2.51-9.07,4.62-13,7.76A59.55,59.55,0,0,0,233.77,214c-6.92,9.69-15.49,17.25-26.63,21.72a10.39,10.39,0,0,0-1.26.81c3.43.84,6.57,1.38,9.61,2.39,7.28,2.37,12.84,6.84,15.14,14.36,1,3.1.83,6.53,1.27,10.37a16.75,16.75,0,0,1-2.16-.86c-14-9.12-29.59-11.2-45.78-9.69-9.41.91-18.73,2.77-28.1,4.15-10.46,1.38-20.85.26-31.05-2-21.44-4.73-40-14.71-54.83-31.17A95,95,0,0,1,45.83,172.4c-4.91-36.2,6.39-66.88,32.62-91.89,16.18-15.44,35.88-24.2,58.09-27.25,17.25-2.36,34.3-.92,51.33,2.22a266.31,266.31,0,0,1,69.48,22.44,57.5,57.5,0,0,1,8.17,4.77C271.83,87.24,273,93.55,267.66,99.17Z"/><path class="cls-1" d="M228,83.23a7.29,7.29,0,1,0,7.28,7.29A7.28,7.28,0,0,0,228,83.23Z"/><path class="cls-1" d="M210.58,146.57A44.72,44.72,0,0,1,198.5,140a47.23,47.23,0,0,1-9.84-13,33.24,33.24,0,0,1-1.22-24.56,28.41,28.41,0,0,1,2.06-4.9c.42-.5.43-.76,0-.76a8.72,8.72,0,0,0-2.6,2.35l0,.08a28.27,28.27,0,0,0-5.74,12.66c-3.3,16.1,10,33.65,27.19,35.8C212.77,148.15,214,147.61,210.58,146.57Z"/><path class="cls-1" d="M148.65,88l-.11,0c-32.23,5.23-66.15,35.54-74.48,66.57a66.3,66.3,0,0,0,3.54,42.61C86.24,217,107.34,231,128.45,231c3.5,0,12.72-1.39,13.33-1.95a8.4,8.4,0,0,0-3.31-.3A63.34,63.34,0,0,1,95,211.7c-8.68-8-14.17-18.66-16.09-31.44-2.89-19.23,2-35,16.27-52.48a102.2,102.2,0,0,1,42.27-31c9.09-3.55,16.8-5.29,29.38-6.66l3.92-.42-3.08-1C163.53,87.29,154.7,87.06,148.65,88Z"/></g></g></svg>